<svg width="422" height="73" viewBox="0 0 422 73" fill="none" xmlns="http://www.w3.org/2000/svg">
<g filter="url(#filter0_d_380_349)">
<path d="M44.042 28.0537L43.4883 32.3252L42.5391 33.1953L42.9609 32.9316C42.9609 34.1094 42.7852 35.8408 42.4336 38.126C42.082 40.4111 41.9062 41.9932 41.9062 42.8721C41.9062 43.751 41.6865 44.3398 41.2471 44.6387C40.8252 44.9375 40.3418 45.0869 39.7969 45.0869L40.5879 43.3467L40.3242 42.6611L40.2715 42.7139C40.2539 42.7139 40.2451 42.6963 40.2451 42.6611L38.9795 43.3994L38.7422 43.3467L37.6611 42.2656L37.7666 42.9248C37.7666 43.9971 37.3799 44.5332 36.6064 44.5332C36.5889 44.4805 36.457 44.3311 36.2109 44.085C35.9824 43.8564 35.8682 43.6895 35.8682 43.584C35.8682 43.4785 35.9473 43.3994 36.1055 43.3467L35.1562 42.7139L34.6816 43.4785C34.6992 43.1445 34.7783 42.626 34.9189 41.9229C35.0771 41.2373 35.1562 40.7012 35.1562 40.3145L34.1807 40.9209L33.7061 39.6553C34.374 39.6553 34.708 38.1787 34.708 35.2256L34.6816 32.9316L35.1826 30.1631C35.1826 30.0752 35.1475 29.9961 35.0771 29.9258C35.0068 29.8555 34.9453 29.8203 34.8926 29.8203L34.6816 29.8994L34.1807 29.293C34.1807 29.293 32.915 29.4951 30.3838 29.8994V30.5059L29.6455 31.376L30.1465 31.1123L30.4365 33.9336L30.3838 40.9209L28.248 42.0811L28.3008 41.6855L28.1953 41.5801L26.165 41.4746C25.9541 41.4746 25.6992 41.6152 25.4004 41.8965C24.4336 42.7578 23.6162 43.2412 22.9482 43.3467L21.7617 42.2129C21.8145 42.125 21.9551 42.0811 22.1836 42.0811C22.4297 42.0811 22.6846 42.1689 22.9482 42.3447C22.9482 34.5928 21.9023 25.5049 19.8105 15.0811C19.7227 14.6416 19.5732 14.0176 19.3623 13.209C18.9229 11.4512 18.7031 9.95703 18.7031 8.72656C18.7031 7.49609 18.2285 6.37109 17.2793 5.35156C16.3301 4.31445 15.1787 3.73438 13.8252 3.61133C16.7607 3.61133 19.2568 3.43555 21.3135 3.08398C23.3877 2.71484 24.6445 2.29297 25.084 1.81836L25.2422 2.45117L25.3213 2.50391C25.5498 2.50391 25.6641 2.32812 25.6641 1.97656L25.6113 1.81836C26.3848 1.81836 27.5186 1.71289 29.0127 1.50195C30.5068 1.29102 31.5879 1.18555 32.2559 1.18555C32.1152 1.36133 31.8867 1.81836 31.5703 2.55664C30.7441 4.47266 30.1641 5.43066 29.8301 5.43066L30.3838 6.08984L29.8301 23.2021C30.1289 23.2021 30.5332 23.0967 31.043 22.8857C31.5703 22.6572 31.9746 22.543 32.2559 22.543V23.2021C32.625 23.2021 33.1787 23.0967 33.917 22.8857C34.6553 22.6572 35.209 22.543 35.5781 22.543V22.8594C35.9297 22.4375 36.1055 21.9629 36.1055 21.4355V11.5215C36.1055 10.9766 36.2637 10.2383 36.5801 9.30664C36.9141 8.375 37.2744 7.90918 37.6611 7.90918C37.6611 7.59277 37.5293 7.31152 37.2656 7.06543C37.002 6.81934 36.7998 6.59961 36.6592 6.40625C36.29 5.91406 36.1055 5.18457 36.1055 4.21777L35.5781 1.18555C37.2305 1.18555 38.6367 1.39648 39.7969 1.81836L40.377 1.18555C40.6758 1.18555 41.1064 1.29102 41.6689 1.50195C42.2314 1.71289 42.6621 1.81836 42.9609 1.81836V1.18555L43.5938 1.92383L47.1797 1.81836C47.4609 2.20508 48.0674 2.41602 48.999 2.45117C49.9307 2.46875 50.5635 2.65332 50.8975 3.00488H52.4268C51.2842 3.00488 49.7549 5.50977 47.8389 10.5195L46.626 14.3164L46.6787 14.5801L46.4941 15.8457L46.3096 15.7666L46.125 15.8457L46.6787 16.4521C46.5732 16.7861 46.3447 17.4102 45.9932 18.3242C45.2021 20.2754 44.8066 21.5762 44.8066 22.2266C44.8066 22.877 44.8857 23.3955 45.0439 23.7822C44.3057 23.7822 43.9365 24.5293 43.9365 26.0234L44.042 28.0537ZM34.6816 46.4053V51.8633H33.7061V50.6504C33.7061 49.9648 33.7939 49.1738 33.9697 48.2773C34.1455 47.3809 34.3828 46.7568 34.6816 46.4053ZM65.0566 42.9248C64.0371 40.8857 63.167 39.8662 62.4463 39.8662C62.4111 39.8662 61.7432 40.1035 60.4424 40.5781C60.4072 40.0508 60.126 39.4268 59.5986 38.7061C59.0889 37.9678 58.834 37.2383 58.834 36.5176H58.8867C58.8867 35.8848 58.7109 34.9707 58.3594 33.7754C58.0078 32.5801 57.709 31.499 57.4629 30.5322C57.2168 29.5654 56.9355 28.0449 56.6191 25.9707C56.3203 23.8965 56.0215 21.6113 55.7227 19.1152C55.4414 16.6016 55.1953 14.668 54.9844 13.3145L54.7998 13.4199L54.6152 13.3672L55.1426 12.7344H54.6152V12.0752H54.6943L54.6152 11.4688L54.8525 11.5215C55.0811 11.0293 55.1953 10.5547 55.1953 10.0977L55.1426 9.67578H54.6416C54.8877 9.58789 55.3096 9.0166 55.9072 7.96191C56.5049 6.90723 57.1377 6.01953 57.8057 5.29883C58.4736 4.56055 59.2207 3.88379 60.0469 3.26855C61.9629 1.84473 64.4854 1.13281 67.6143 1.13281V1.71289L68.1152 1.13281L71.0947 1.71289V1.13281C72.9053 1.13281 75.1904 2.33691 77.9502 4.74512L78.4775 4.16504L78.5303 4.63965L78.0557 4.74512L79.0312 5.4043L78.5303 5.95801C78.6357 6.18652 78.873 6.4502 79.2422 6.74902C79.6113 7.04785 79.9102 7.19727 80.1387 7.19727H80.2441L81.6416 9.04297H81.2725C81.167 9.5 81.1143 10.2295 81.1143 11.2314C81.1143 12.2334 81.1318 12.9453 81.167 13.3672L81.6416 13.9473L81.167 18.7988H81.6416C81.0791 23.334 80.042 27.8164 78.5303 32.2461C78.46 32.4395 78.3105 32.8086 78.082 33.3535C77.6426 34.4258 77.4229 35.2871 77.4229 35.9375L77.9502 36.5176C77.5635 36.5176 77.2295 36.7988 76.9482 37.3613C76.667 37.9062 76.4824 38.4424 76.3945 38.9697C75.7266 39.7432 75.2871 40.4375 75.0762 41.0527C74.8828 41.668 74.7861 42.4502 74.7861 43.3994V45.0869H74.2588C73.8369 45.0869 73.626 44.8496 73.626 44.375L73.7578 43.0039C73.7578 42.4238 73.4062 42.0898 72.7031 42.002V42.582L72.3604 42.5293L71.6221 43.2676L71.0947 42.7402V43.874L70.3564 44.5332C69.8291 44.4277 69.4512 44.1641 69.2227 43.7422C69.0117 43.3379 68.915 42.9248 68.9326 42.5029C68.9854 41.3955 68.5459 40.8418 67.6143 40.8418C67.3857 40.8418 67.1309 40.9648 66.8496 41.2109C66.5859 41.457 66.4189 41.5801 66.3486 41.5801C66.2959 41.5801 66.2344 41.5273 66.1641 41.4219L65.0566 42.9248ZM67.6143 35.9375C68.8975 35.9375 69.5391 34.7949 69.5391 32.5098C69.5391 32.123 69.5215 31.833 69.4863 31.6396H70.04V30.4004H70.5674L70.04 29.8203V29.1611C70.04 28.7744 70.2158 28.3877 70.5674 28.001V26.1289C70.5674 25.3203 70.3916 24.7227 70.04 24.3359V22.9912C70.04 20.9697 69.7148 19.5371 69.0645 18.6934C68.7832 18.3418 68.4492 18.166 68.0625 18.166H67.1396V18.7988H66.6387C65.6367 20.2051 65.1357 21.6377 65.1357 23.0967V28.001C65.1357 28.2295 65.2412 28.4316 65.4521 28.6074H65.1357V30.4004C65.1357 30.8574 65.3379 31.2705 65.7422 31.6396C65.7422 32.2549 65.8828 33.0107 66.1641 33.9072C66.4629 34.8037 66.7881 35.4805 67.1396 35.9375H67.6143ZM55.1426 14.5537H54.6152V13.9473L55.1426 14.5537ZM55.1426 15.1338H54.6152L54.6943 14.8438L55.1426 15.1338ZM102.182 40.1035L102.129 39.7871C102.129 39.6992 102.146 39.6377 102.182 39.6025H102.604V38.9697H102.076L102.604 38.3633C102.182 38.2402 101.971 37.5195 101.971 36.2012C101.971 34.8652 102.006 33.9688 102.076 33.5117L101.522 32.8525V31.877C101.435 32.2109 101.127 32.3779 100.6 32.3779C100.09 32.3779 99.5977 32.3516 99.123 32.2988L99.624 34.1445L99.123 34.7246L99.0176 35.4365L99.624 35.9375H99.6768C99.6768 36.7461 99.5801 37.9766 99.3867 39.6289C99.2109 41.2637 99.123 42.4854 99.123 43.2939L98.6221 42.6611V42.002H97.6992C96.5742 42.002 95.9941 42.4062 95.959 43.2148C95.748 43.1797 95.4053 43.0742 94.9307 42.8984C94.4561 42.7402 94.0869 42.6611 93.8232 42.6611L93.3223 43.7158V43.2939L92.7949 44.5332C92.0391 44.5332 91.6611 42.8545 91.6611 39.4971L91.7139 37.2031C91.7139 35.9902 91.5381 35.1641 91.1865 34.7246H91.3711C91.5996 34.4082 91.7139 33.9248 91.7139 33.2744C91.7139 32.6064 91.5381 31.8682 91.1865 31.0596L91.7139 29.2139C91.3096 28.6865 90.9492 27.8779 90.6328 26.7881L91.1865 26.1816V25.5488L90.1055 24.9688C90.1055 24.3535 90.2021 23.9668 90.3955 23.8086C90.5889 23.6504 90.6855 23.3955 90.6855 23.0439C90.6855 22.6924 90.5098 21.1807 90.1582 18.5088C89.8066 15.8369 89.6309 13.9209 89.6309 12.7607C89.6309 11.583 89.376 10.5547 88.8662 9.67578C88.3564 8.79688 87.7764 8.02344 87.126 7.35547C85.2803 5.42188 84.1729 3.97168 83.8037 3.00488C87.2314 3.00488 89.6924 2.5918 91.1865 1.76562L92.2412 2.3457C93.0146 1.53711 94.4297 1.13281 96.4863 1.13281V1.76562C97.0488 1.34375 97.4004 1.13281 97.541 1.13281C98.332 1.13281 99.4307 1.23828 100.837 1.44922C102.243 1.66016 103.271 1.76562 103.922 1.76562L104.133 1.31738C104.326 1.45801 104.854 1.66016 105.715 1.92383C106.594 2.1875 107.525 2.49512 108.51 2.84668C109.512 3.18066 110.514 3.59375 111.516 4.08594C112.518 4.56055 113.344 5.18457 113.994 5.95801C114.662 6.71387 114.996 7.54883 114.996 8.46289C114.996 10.5898 114.548 13.5957 113.651 17.4805C112.772 21.3477 112.333 24.248 112.333 26.1816C111.155 27.6406 110.672 28.792 110.883 29.6357C110.883 29.8115 110.927 29.9609 111.015 30.084L110.514 29.8203L110.013 30.4795C108.923 30.4795 108.378 31.0859 108.378 32.2988C108.782 32.2988 108.984 33.4326 108.984 35.7002L108.932 38.2051C108.932 40.7891 109.107 42.6787 109.459 43.874L108.932 45.6934L106.295 43.874C106.049 43.874 105.882 43.7773 105.794 43.584C105.706 43.3906 105.521 43.2939 105.24 43.2939C104.959 43.2939 104.739 43.3203 104.581 43.373C104.423 43.4434 104.317 43.5137 104.265 43.584C104.212 43.6719 104.124 43.8125 104.001 44.0059C103.878 44.1992 103.755 44.375 103.632 44.5332C103.632 43.9355 103.825 43.5576 104.212 43.3994C104.212 43.3467 103.904 43.0742 103.289 42.582L103.104 42.6611V43.5576C103.087 43.3467 102.99 43.1357 102.814 42.9248C102.322 42.3271 102.076 41.4307 102.076 40.2354C102.146 40.2354 102.182 40.1914 102.182 40.1035ZM99.624 21.9102L99.5449 23.3076C99.5449 24.415 100.494 24.9688 102.393 24.9688H103.104C103.474 24.9688 103.781 24.5645 104.027 23.7559C104.291 22.9297 104.423 22.3145 104.423 21.9102C104.423 21.4883 104.599 21.084 104.95 20.6973C104.388 19.4492 103.86 18.623 103.368 18.2188C102.894 17.7969 102.138 17.5859 101.101 17.5859C100.89 17.5859 100.723 17.7178 100.6 17.9814C100.494 18.2451 100.424 18.377 100.389 18.377L100.125 18.1924H99.2021C99.3076 18.21 99.4043 18.2979 99.4922 18.4561C99.5801 18.5967 99.624 18.7373 99.624 18.8779V21.2773L99.123 21.9102H99.624ZM93.3223 44.5332C93.2871 44.4102 93.2695 44.252 93.2695 44.0586C93.2695 43.8828 93.2871 43.7686 93.3223 43.7158V44.5332ZM95.959 43.2148L96.3281 43.2939H95.959V43.2148ZM135.457 40.1035L135.404 39.7871C135.404 39.6992 135.422 39.6377 135.457 39.6025H135.879V38.9697H135.352L135.879 38.3633C135.457 38.2402 135.246 37.5195 135.246 36.2012C135.246 34.8652 135.281 33.9688 135.352 33.5117L134.798 32.8525V31.877C134.71 32.2109 134.402 32.3779 133.875 32.3779C133.365 32.3779 132.873 32.3516 132.398 32.2988L132.899 34.1445L132.398 34.7246L132.293 35.4365L132.899 35.9375H132.952C132.952 36.7461 132.855 37.9766 132.662 39.6289C132.486 41.2637 132.398 42.4854 132.398 43.2939L131.897 42.6611V42.002H130.975C129.85 42.002 129.27 42.4062 129.234 43.2148C129.023 43.1797 128.681 43.0742 128.206 42.8984C127.731 42.7402 127.362 42.6611 127.099 42.6611L126.598 43.7158V43.2939L126.07 44.5332C125.314 44.5332 124.937 42.8545 124.937 39.4971L124.989 37.2031C124.989 35.9902 124.813 35.1641 124.462 34.7246H124.646C124.875 34.4082 124.989 33.9248 124.989 33.2744C124.989 32.6064 124.813 31.8682 124.462 31.0596L124.989 29.2139C124.585 28.6865 124.225 27.8779 123.908 26.7881L124.462 26.1816V25.5488L123.381 24.9688C123.381 24.3535 123.478 23.9668 123.671 23.8086C123.864 23.6504 123.961 23.3955 123.961 23.0439C123.961 22.6924 123.785 21.1807 123.434 18.5088C123.082 15.8369 122.906 13.9209 122.906 12.7607C122.906 11.583 122.651 10.5547 122.142 9.67578C121.632 8.79688 121.052 8.02344 120.401 7.35547C118.556 5.42188 117.448 3.97168 117.079 3.00488C120.507 3.00488 122.968 2.5918 124.462 1.76562L125.517 2.3457C126.29 1.53711 127.705 1.13281 129.762 1.13281V1.76562C130.324 1.34375 130.676 1.13281 130.816 1.13281C131.607 1.13281 132.706 1.23828 134.112 1.44922C135.519 1.66016 136.547 1.76562 137.197 1.76562L137.408 1.31738C137.602 1.45801 138.129 1.66016 138.99 1.92383C139.869 2.1875 140.801 2.49512 141.785 2.84668C142.787 3.18066 143.789 3.59375 144.791 4.08594C145.793 4.56055 146.619 5.18457 147.27 5.95801C147.938 6.71387 148.271 7.54883 148.271 8.46289C148.271 10.5898 147.823 13.5957 146.927 17.4805C146.048 21.3477 145.608 24.248 145.608 26.1816C144.431 27.6406 143.947 28.792 144.158 29.6357C144.158 29.8115 144.202 29.9609 144.29 30.084L143.789 29.8203L143.288 30.4795C142.198 30.4795 141.653 31.0859 141.653 32.2988C142.058 32.2988 142.26 33.4326 142.26 35.7002L142.207 38.2051C142.207 40.7891 142.383 42.6787 142.734 43.874L142.207 45.6934L139.57 43.874C139.324 43.874 139.157 43.7773 139.069 43.584C138.981 43.3906 138.797 43.2939 138.516 43.2939C138.234 43.2939 138.015 43.3203 137.856 43.373C137.698 43.4434 137.593 43.5137 137.54 43.584C137.487 43.6719 137.399 43.8125 137.276 44.0059C137.153 44.1992 137.03 44.375 136.907 44.5332C136.907 43.9355 137.101 43.5576 137.487 43.3994C137.487 43.3467 137.18 43.0742 136.564 42.582L136.38 42.6611V43.5576C136.362 43.3467 136.266 43.1357 136.09 42.9248C135.598 42.3271 135.352 41.4307 135.352 40.2354C135.422 40.2354 135.457 40.1914 135.457 40.1035ZM132.899 21.9102L132.82 23.3076C132.82 24.415 133.77 24.9688 135.668 24.9688H136.38C136.749 24.9688 137.057 24.5645 137.303 23.7559C137.566 22.9297 137.698 22.3145 137.698 21.9102C137.698 21.4883 137.874 21.084 138.226 20.6973C137.663 19.4492 137.136 18.623 136.644 18.2188C136.169 17.7969 135.413 17.5859 134.376 17.5859C134.165 17.5859 133.998 17.7178 133.875 17.9814C133.77 18.2451 133.699 18.377 133.664 18.377L133.4 18.1924H132.478C132.583 18.21 132.68 18.2979 132.768 18.4561C132.855 18.5967 132.899 18.7373 132.899 18.8779V21.2773L132.398 21.9102H132.899ZM126.598 44.5332C126.562 44.4102 126.545 44.252 126.545 44.0586C126.545 43.8828 126.562 43.7686 126.598 43.7158V44.5332ZM129.234 43.2148L129.604 43.2939H129.234V43.2148ZM161.086 42.9248C160.066 40.8857 159.196 39.8662 158.476 39.8662C158.44 39.8662 157.772 40.1035 156.472 40.5781C156.437 40.0508 156.155 39.4268 155.628 38.7061C155.118 37.9678 154.863 37.2383 154.863 36.5176H154.916C154.916 35.8848 154.74 34.9707 154.389 33.7754C154.037 32.5801 153.738 31.499 153.492 30.5322C153.246 29.5654 152.965 28.0449 152.648 25.9707C152.35 23.8965 152.051 21.6113 151.752 19.1152C151.471 16.6016 151.225 14.668 151.014 13.3145L150.829 13.4199L150.645 13.3672L151.172 12.7344H150.645V12.0752H150.724L150.645 11.4688L150.882 11.5215C151.11 11.0293 151.225 10.5547 151.225 10.0977L151.172 9.67578H150.671C150.917 9.58789 151.339 9.0166 151.937 7.96191C152.534 6.90723 153.167 6.01953 153.835 5.29883C154.503 4.56055 155.25 3.88379 156.076 3.26855C157.992 1.84473 160.515 1.13281 163.644 1.13281V1.71289L164.145 1.13281L167.124 1.71289V1.13281C168.935 1.13281 171.22 2.33691 173.979 4.74512L174.507 4.16504L174.56 4.63965L174.085 4.74512L175.061 5.4043L174.56 5.95801C174.665 6.18652 174.902 6.4502 175.271 6.74902C175.641 7.04785 175.939 7.19727 176.168 7.19727H176.273L177.671 9.04297H177.302C177.196 9.5 177.144 10.2295 177.144 11.2314C177.144 12.2334 177.161 12.9453 177.196 13.3672L177.671 13.9473L177.196 18.7988H177.671C177.108 23.334 176.071 27.8164 174.56 32.2461C174.489 32.4395 174.34 32.8086 174.111 33.3535C173.672 34.4258 173.452 35.2871 173.452 35.9375L173.979 36.5176C173.593 36.5176 173.259 36.7988 172.978 37.3613C172.696 37.9062 172.512 38.4424 172.424 38.9697C171.756 39.7432 171.316 40.4375 171.105 41.0527C170.912 41.668 170.815 42.4502 170.815 43.3994V45.0869H170.288C169.866 45.0869 169.655 44.8496 169.655 44.375L169.787 43.0039C169.787 42.4238 169.436 42.0898 168.732 42.002V42.582L168.39 42.5293L167.651 43.2676L167.124 42.7402V43.874L166.386 44.5332C165.858 44.4277 165.48 44.1641 165.252 43.7422C165.041 43.3379 164.944 42.9248 164.962 42.5029C165.015 41.3955 164.575 40.8418 163.644 40.8418C163.415 40.8418 163.16 40.9648 162.879 41.2109C162.615 41.457 162.448 41.5801 162.378 41.5801C162.325 41.5801 162.264 41.5273 162.193 41.4219L161.086 42.9248ZM163.644 35.9375C164.927 35.9375 165.568 34.7949 165.568 32.5098C165.568 32.123 165.551 31.833 165.516 31.6396H166.069V30.4004H166.597L166.069 29.8203V29.1611C166.069 28.7744 166.245 28.3877 166.597 28.001V26.1289C166.597 25.3203 166.421 24.7227 166.069 24.3359V22.9912C166.069 20.9697 165.744 19.5371 165.094 18.6934C164.812 18.3418 164.479 18.166 164.092 18.166H163.169V18.7988H162.668C161.666 20.2051 161.165 21.6377 161.165 23.0967V28.001C161.165 28.2295 161.271 28.4316 161.481 28.6074H161.165V30.4004C161.165 30.8574 161.367 31.2705 161.771 31.6396C161.771 32.2549 161.912 33.0107 162.193 33.9072C162.492 34.8037 162.817 35.4805 163.169 35.9375H163.644ZM151.172 14.5537H150.645V13.9473L151.172 14.5537ZM151.172 15.1338H150.645L150.724 14.8438L151.172 15.1338ZM198.211 40.1035L198.158 39.7871C198.158 39.6992 198.176 39.6377 198.211 39.6025H198.633V38.9697H198.105L198.633 38.3633C198.211 38.2402 198 37.5195 198 36.2012C198 34.8652 198.035 33.9688 198.105 33.5117L197.552 32.8525V31.877C197.464 32.2109 197.156 32.3779 196.629 32.3779C196.119 32.3779 195.627 32.3516 195.152 32.2988L195.653 34.1445L195.152 34.7246L195.047 35.4365L195.653 35.9375H195.706C195.706 36.7461 195.609 37.9766 195.416 39.6289C195.24 41.2637 195.152 42.4854 195.152 43.2939L194.651 42.6611V42.002H193.729C192.604 42.002 192.023 42.4062 191.988 43.2148C191.777 43.1797 191.435 43.0742 190.96 42.8984C190.485 42.7402 190.116 42.6611 189.853 42.6611L189.352 43.7158V43.2939L188.824 44.5332C188.068 44.5332 187.69 42.8545 187.69 39.4971L187.743 37.2031C187.743 35.9902 187.567 35.1641 187.216 34.7246H187.4C187.629 34.4082 187.743 33.9248 187.743 33.2744C187.743 32.6064 187.567 31.8682 187.216 31.0596L187.743 29.2139C187.339 28.6865 186.979 27.8779 186.662 26.7881L187.216 26.1816V25.5488L186.135 24.9688C186.135 24.3535 186.231 23.9668 186.425 23.8086C186.618 23.6504 186.715 23.3955 186.715 23.0439C186.715 22.6924 186.539 21.1807 186.188 18.5088C185.836 15.8369 185.66 13.9209 185.66 12.7607C185.66 11.583 185.405 10.5547 184.896 9.67578C184.386 8.79688 183.806 8.02344 183.155 7.35547C181.31 5.42188 180.202 3.97168 179.833 3.00488C183.261 3.00488 185.722 2.5918 187.216 1.76562L188.271 2.3457C189.044 1.53711 190.459 1.13281 192.516 1.13281V1.76562C193.078 1.34375 193.43 1.13281 193.57 1.13281C194.361 1.13281 195.46 1.23828 196.866 1.44922C198.272 1.66016 199.301 1.76562 199.951 1.76562L200.162 1.31738C200.355 1.45801 200.883 1.66016 201.744 1.92383C202.623 2.1875 203.555 2.49512 204.539 2.84668C205.541 3.18066 206.543 3.59375 207.545 4.08594C208.547 4.56055 209.373 5.18457 210.023 5.95801C210.691 6.71387 211.025 7.54883 211.025 8.46289C211.025 10.5898 210.577 13.5957 209.681 17.4805C208.802 21.3477 208.362 24.248 208.362 26.1816C207.185 27.6406 206.701 28.792 206.912 29.6357C206.912 29.8115 206.956 29.9609 207.044 30.084L206.543 29.8203L206.042 30.4795C204.952 30.4795 204.407 31.0859 204.407 32.2988C204.812 32.2988 205.014 33.4326 205.014 35.7002L204.961 38.2051C204.961 40.7891 205.137 42.6787 205.488 43.874L204.961 45.6934L202.324 43.874C202.078 43.874 201.911 43.7773 201.823 43.584C201.735 43.3906 201.551 43.2939 201.27 43.2939C200.988 43.2939 200.769 43.3203 200.61 43.373C200.452 43.4434 200.347 43.5137 200.294 43.584C200.241 43.6719 200.153 43.8125 200.03 44.0059C199.907 44.1992 199.784 44.375 199.661 44.5332C199.661 43.9355 199.854 43.5576 200.241 43.3994C200.241 43.3467 199.934 43.0742 199.318 42.582L199.134 42.6611V43.5576C199.116 43.3467 199.02 43.1357 198.844 42.9248C198.352 42.3271 198.105 41.4307 198.105 40.2354C198.176 40.2354 198.211 40.1914 198.211 40.1035ZM195.653 21.9102L195.574 23.3076C195.574 24.415 196.523 24.9688 198.422 24.9688H199.134C199.503 24.9688 199.811 24.5645 200.057 23.7559C200.32 22.9297 200.452 22.3145 200.452 21.9102C200.452 21.4883 200.628 21.084 200.979 20.6973C200.417 19.4492 199.89 18.623 199.397 18.2188C198.923 17.7969 198.167 17.5859 197.13 17.5859C196.919 17.5859 196.752 17.7178 196.629 17.9814C196.523 18.2451 196.453 18.377 196.418 18.377L196.154 18.1924H195.231C195.337 18.21 195.434 18.2979 195.521 18.4561C195.609 18.5967 195.653 18.7373 195.653 18.8779V21.2773L195.152 21.9102H195.653ZM189.352 44.5332C189.316 44.4102 189.299 44.252 189.299 44.0586C189.299 43.8828 189.316 43.7686 189.352 43.7158V44.5332ZM191.988 43.2148L192.357 43.2939H191.988V43.2148ZM226.846 20.9082L226.318 15.3184H225.237V14.8174C225.237 14.5361 225.343 14.0615 225.554 13.3936C225.765 12.708 225.87 12.1982 225.87 11.8643C225.87 11.5127 225.853 11.2666 225.817 11.126H225.237L225.817 10.4668V9.88672C225.817 9.28906 225.598 8.69141 225.158 8.09375C224.719 7.49609 224.235 7.00391 223.708 6.61719C222.302 5.54492 221.581 4.79785 221.546 4.37598L222.126 4.95605C223.831 4.14746 228.296 3.01367 235.521 1.55469C237.841 1.09766 239.054 0.825195 239.159 0.737305V1.31738L240.135 0.737305L239.159 1.92383V3.7959C239.159 4.1123 239.247 4.5957 239.423 5.24609C239.599 5.89648 239.687 6.38867 239.687 6.72266C239.687 7.03906 239.669 7.27637 239.634 7.43457C240.003 7.96191 240.24 8.65625 240.346 9.51758C240.451 10.3613 240.53 11.1611 240.583 11.917C240.653 12.6553 240.82 13.1826 241.084 13.499L242.534 8.04102H242.06V7.43457L242.534 7.90918C242.851 7.50488 243.009 7.04785 243.009 6.53809C243.009 6.02832 242.991 5.7207 242.956 5.61523L243.932 3.7959C243.967 3.67285 243.984 3.47949 243.984 3.21582C243.984 2.95215 243.888 2.55664 243.694 2.0293C243.501 1.50195 243.404 1.15039 243.404 0.974609L243.431 0.737305L243.932 0.104492L244.406 0.737305V0.104492H245.355L245.856 1.31738H247.729C247.904 0.913086 248.44 0.710938 249.337 0.710938C250.251 0.710938 251.394 0.851562 252.765 1.13281C254.136 1.39648 255.691 1.75684 257.432 2.21387C259.189 2.6709 260.464 2.97852 261.255 3.13672L260.728 3.7959H259.699L258.091 4.95605V5.61523H257.405L255.955 7.43457V9.25391H256.192L255.428 10.4668C255.428 10.8008 255.375 11.1523 255.27 11.5215L255.032 11.9434L254.9 11.9697C254.83 11.7588 254.751 11.6533 254.663 11.6533C254.575 11.6533 254.496 11.6621 254.426 11.6797L254.9 12.9453C254.584 14.1582 254.18 16.5312 253.688 20.0645C252.457 28.8535 251.262 34.0127 250.102 35.542L250.365 36.1221L249.653 36.7285L250.102 37.3613H249.653V39.7871C249.231 40.3848 248.915 41.5537 248.704 43.2939L248.229 42.8457V41L247.729 40.3936V41.6328L247.307 42.2656C247.201 42.0371 247.087 41.7471 246.964 41.3955C246.841 41.0439 246.744 40.7979 246.674 40.6572C246.621 40.5166 246.524 40.3672 246.384 40.209C246.138 39.9277 245.637 39.7871 244.881 39.7871C244.564 40.2441 244.406 40.8594 244.406 41.6328H243.431V40.3936H242.956L244.881 25.1797H244.406C244.09 25.6191 243.932 26.4277 243.932 27.6055L242.956 29.3984V29.7148C242.956 30.752 242.815 31.4727 242.534 31.877C242.534 32.6328 242.376 33.2305 242.06 33.6699V34.9092L241.532 35.542C241.532 36.0869 241.374 36.8604 241.058 37.8623C240.741 38.8643 240.583 39.5146 240.583 39.8135C240.583 40.1123 240.601 40.3848 240.636 40.6309C239.81 40.7715 239.168 41.1055 238.711 41.6328H238.395L238.711 41C238.518 40.4551 238.351 39.2686 238.21 37.4404C238.069 35.5947 237.762 34.3379 237.287 33.6699L237.261 33.4062C237.261 33.0371 237.384 32.4658 237.63 31.6924C237.507 31.499 237.217 30.3564 236.76 28.2646C236.303 26.1553 235.995 24.8633 235.837 24.3887V33.6699H236.338V34.9092H235.837L236.338 35.542C235.934 36.0166 235.731 36.8428 235.731 38.0205C235.731 39.1982 235.767 40.1914 235.837 41H234.756L233.754 40.3936V39.2334L233.2 39.7871L232.673 39.2334V39.3389C232.673 39.4443 232.638 39.5586 232.567 39.6816C232.497 39.7871 232.436 39.8398 232.383 39.8398C232.348 39.8398 232.295 39.8047 232.225 39.7344L231.064 40.3936V44.0586L230.537 44.6914H229.509V43.4785H229.43C229.289 43.4785 229.219 43.373 229.219 43.1621C229.219 42.9512 229.289 42.8457 229.43 42.8457H229.509V40.3936L228.929 39.7871V37.9414L228.454 37.3613L228.507 34.8037C228.524 33.7139 228.34 32.1055 227.953 29.9785C227.566 27.834 227.373 26.2344 227.373 25.1797H226.846L227.373 24.5205V24.2568C227.373 23.8525 227.303 23.5977 227.162 23.4922C227.021 23.3691 226.74 23.3076 226.318 23.3076C226.564 22.4111 226.916 21.8047 227.373 21.4883H226.318C226.248 21.418 226.213 21.3477 226.213 21.2773C226.213 21.1719 226.257 21.0664 226.345 20.9609C226.45 20.8555 226.538 20.8027 226.608 20.8027C226.696 20.8027 226.775 20.8379 226.846 20.9082ZM274.148 42.9248C273.129 40.8857 272.259 39.8662 271.538 39.8662C271.503 39.8662 270.835 40.1035 269.534 40.5781C269.499 40.0508 269.218 39.4268 268.69 38.7061C268.181 37.9678 267.926 37.2383 267.926 36.5176H267.979C267.979 35.8848 267.803 34.9707 267.451 33.7754C267.1 32.5801 266.801 31.499 266.555 30.5322C266.309 29.5654 266.027 28.0449 265.711 25.9707C265.412 23.8965 265.113 21.6113 264.814 19.1152C264.533 16.6016 264.287 14.668 264.076 13.3145L263.892 13.4199L263.707 13.3672L264.234 12.7344H263.707V12.0752H263.786L263.707 11.4688L263.944 11.5215C264.173 11.0293 264.287 10.5547 264.287 10.0977L264.234 9.67578H263.733C263.979 9.58789 264.401 9.0166 264.999 7.96191C265.597 6.90723 266.229 6.01953 266.897 5.29883C267.565 4.56055 268.312 3.88379 269.139 3.26855C271.055 1.84473 273.577 1.13281 276.706 1.13281V1.71289L277.207 1.13281L280.187 1.71289V1.13281C281.997 1.13281 284.282 2.33691 287.042 4.74512L287.569 4.16504L287.622 4.63965L287.147 4.74512L288.123 5.4043L287.622 5.95801C287.728 6.18652 287.965 6.4502 288.334 6.74902C288.703 7.04785 289.002 7.19727 289.23 7.19727H289.336L290.733 9.04297H290.364C290.259 9.5 290.206 10.2295 290.206 11.2314C290.206 12.2334 290.224 12.9453 290.259 13.3672L290.733 13.9473L290.259 18.7988H290.733C290.171 23.334 289.134 27.8164 287.622 32.2461C287.552 32.4395 287.402 32.8086 287.174 33.3535C286.734 34.4258 286.515 35.2871 286.515 35.9375L287.042 36.5176C286.655 36.5176 286.321 36.7988 286.04 37.3613C285.759 37.9062 285.574 38.4424 285.486 38.9697C284.818 39.7432 284.379 40.4375 284.168 41.0527C283.975 41.668 283.878 42.4502 283.878 43.3994V45.0869H283.351C282.929 45.0869 282.718 44.8496 282.718 44.375L282.85 43.0039C282.85 42.4238 282.498 42.0898 281.795 42.002V42.582L281.452 42.5293L280.714 43.2676L280.187 42.7402V43.874L279.448 44.5332C278.921 44.4277 278.543 44.1641 278.314 43.7422C278.104 43.3379 278.007 42.9248 278.024 42.5029C278.077 41.3955 277.638 40.8418 276.706 40.8418C276.478 40.8418 276.223 40.9648 275.941 41.2109C275.678 41.457 275.511 41.5801 275.44 41.5801C275.388 41.5801 275.326 41.5273 275.256 41.4219L274.148 42.9248ZM276.706 35.9375C277.989 35.9375 278.631 34.7949 278.631 32.5098C278.631 32.123 278.613 31.833 278.578 31.6396H279.132V30.4004H279.659L279.132 29.8203V29.1611C279.132 28.7744 279.308 28.3877 279.659 28.001V26.1289C279.659 25.3203 279.483 24.7227 279.132 24.3359V22.9912C279.132 20.9697 278.807 19.5371 278.156 18.6934C277.875 18.3418 277.541 18.166 277.154 18.166H276.231V18.7988H275.73C274.729 20.2051 274.228 21.6377 274.228 23.0967V28.001C274.228 28.2295 274.333 28.4316 274.544 28.6074H274.228V30.4004C274.228 30.8574 274.43 31.2705 274.834 31.6396C274.834 32.2549 274.975 33.0107 275.256 33.9072C275.555 34.8037 275.88 35.4805 276.231 35.9375H276.706ZM264.234 14.5537H263.707V13.9473L264.234 14.5537ZM264.234 15.1338H263.707L263.786 14.8438L264.234 15.1338ZM314.991 35.542L314.543 40.1035C314.033 40.5781 313.761 40.9824 313.726 41.3164C313.69 41.6504 313.673 41.9668 313.673 42.2656L313.172 42.8457C313.154 42.8633 313.137 42.8809 313.119 42.8984C313.031 43.0566 312.926 43.0566 312.803 42.8984C312.68 42.7402 312.618 42.6172 312.618 42.5293C312.618 42.459 312.645 42.3711 312.697 42.2656H311.748C311.748 43.127 311.599 43.7246 311.3 44.0586H309.876L309.375 43.4785H308.9L308.426 44.0586V44.6914H307.503V44.0586C307.099 44.0586 306.896 43.4082 306.896 42.1074C306.896 40.8242 306.923 40.0508 306.976 39.7871C305.886 39.0312 304.989 36.9922 304.286 33.6699L303.785 34.3291C303.75 34.2588 303.732 34.0742 303.732 33.7754C303.732 33.459 303.917 33.0371 304.286 32.5098H303.785V31.877L303.311 31.2441V30.0312C302.449 29.2754 301.175 24.4766 299.487 15.6348C298.854 12.2422 298.406 10.1152 298.143 9.25391H297.246L297.615 8.67383C297.369 7.30273 296.903 6.07227 296.218 4.98242C295.55 3.89258 294.899 3.33887 294.267 3.32129V2.71484H291.63C296.499 1.7832 301.315 1.31738 306.079 1.31738V0.737305H306.976L307.556 1.31738H306.527V3.13672L306.976 3.7959V6.82812H307.503L306.976 7.43457C307.327 8.1377 307.503 8.67383 307.503 9.04297V9.25391C307.854 9.72852 308.03 10.5371 308.03 11.6797L307.951 14.1582C307.951 14.457 308.074 15.1865 308.32 16.3467C308.584 17.4893 308.777 18.1924 308.9 18.4561L308.558 18.0078C308.821 18.4824 308.971 19.5723 309.006 21.2773C309.041 22.9648 309.094 24.6172 309.164 26.2344C309.252 27.8516 309.489 28.8711 309.876 29.293C310.28 27.9395 310.588 25.6807 310.799 22.5166C311.01 19.3525 311.177 17.375 311.3 16.584L310.825 15.9775L311.3 15.3184C311.3 12.4531 311.449 10.4316 311.748 9.25391C311.695 9.30664 311.643 9.33301 311.59 9.33301C311.361 9.33301 311.247 9.20117 311.247 8.9375C311.247 8.65625 311.493 7.83008 311.985 6.45898C312.495 5.07031 312.75 4.19141 312.75 3.82227C312.75 3.43555 312.732 3.20703 312.697 3.13672L313.172 2.53027V1.31738H313.673L314.147 0.737305V1.31738C315.536 1.31738 317.619 1.4668 320.396 1.76562C323.191 2.04688 325.292 2.1875 326.698 2.1875L324.562 3.34766C323.279 4.22656 322.075 6.27441 320.95 9.49121C319.825 12.6904 319.263 15.4766 319.263 17.8496H318.788C318.788 18.834 318.472 20.8291 317.839 23.835C317.206 26.8232 316.723 28.6777 316.389 29.3984H316.863V30.0312L316.389 30.6113C316.389 31.3848 316.248 32.2637 315.967 33.248C315.703 34.2148 315.378 34.9795 314.991 35.542ZM341.912 31.7979L341.306 41.791C341.675 41.791 341.859 42.1074 341.859 42.7402V43.0303C341.279 42.9072 340.928 42.5908 340.805 42.0811V42.4502L340.146 42.4766C339.829 42.5117 339.53 42.4502 339.249 42.292C338.968 42.1338 338.827 41.9404 338.827 41.7119C338.827 41.501 338.845 41.334 338.88 41.2109H338.933C338.933 40.4023 338.616 39.998 337.983 39.998C337.562 39.998 337.157 40.2793 336.771 40.8418C336.384 41.3867 336.155 41.7031 336.085 41.791C335.347 41.7559 334.925 39.2246 334.819 34.1973C334.767 32.2461 334.714 31.1475 334.661 30.9014C334.608 30.6377 334.512 30.1719 334.371 29.5039C334.248 28.8184 334.16 28.3613 334.107 28.1328C334.072 27.9043 333.993 27.4824 333.87 26.8672C333.765 26.2344 333.694 25.7773 333.659 25.4961L333.448 24.2305C333.36 23.668 333.299 23.2197 333.264 22.8857C333.229 22.5342 333.176 22.1035 333.105 21.5938C333.053 21.0664 333.009 20.6006 332.974 20.1963C332.921 19.2471 332.895 18.3418 332.895 17.4805L333.211 11.2578H333.686L332.13 7.64551C331.989 7.31152 331.638 6.94238 331.075 6.53809C330.53 6.11621 330.038 5.67676 329.599 5.21973C329.159 4.74512 328.948 4.20898 328.966 3.61133V3.40039L327.885 2.71484L328.201 2.13477L327.41 2.71484L326.909 2.13477C328.069 2.13477 329.713 1.93262 331.84 1.52832C333.984 1.12402 335.54 0.921875 336.507 0.921875L337.008 1.52832L340.805 0.921875C341.279 1.39648 342.466 1.69531 344.364 1.81836C346.28 1.94141 347.388 2.04688 347.687 2.13477C347.669 2.15234 347.59 2.22266 347.449 2.3457C347.326 2.46875 347.238 2.55664 347.186 2.60938C347.15 2.66211 347.062 2.75 346.922 2.87305C346.799 2.99609 346.702 3.10156 346.632 3.18945C346.562 3.25977 346.465 3.36523 346.342 3.50586C346.236 3.62891 346.148 3.74316 346.078 3.84863C346.025 3.93652 345.955 4.04199 345.867 4.16504C345.797 4.28809 345.735 4.40234 345.683 4.50781C345.595 4.73633 345.551 4.96484 345.551 5.19336H346.078C345.287 6.10742 344.575 7.52246 343.942 9.43848L344.496 10.0449C343.09 15.2656 342.387 19.5635 342.387 22.9385L342.914 26.5508C342.633 26.9199 342.457 27.4912 342.387 28.2646L341.859 27.7373L342.387 30.2422L341.306 30.7959C341.71 30.7959 341.912 31.1299 341.912 31.7979ZM367.277 42.7402L366.117 42.7139L365.326 43.3467L364.271 42.1338V41.4746C363.92 41.1055 363.401 40.9209 362.716 40.9209H361.661L361.107 41.4746V42.1338C360.791 42.1338 360.527 42.4414 360.316 43.0566C360.105 43.6719 359.851 43.9795 359.552 43.9795V44.5332C359.376 43.584 359.024 41.8438 358.497 39.3125C357.39 34.1445 356.836 30.1982 356.836 27.4736C356.836 26.9287 356.854 26.5244 356.889 26.2607L356.388 25.6543L353.804 10.3613H354.331V9.72852H353.804C353.751 9.64062 353.637 9.42969 353.461 9.0957C353.303 8.74414 353.197 8.51562 353.145 8.41016C353.092 8.30469 352.986 8.10254 352.828 7.80371C352.67 7.4873 352.547 7.26758 352.459 7.14453C352.389 7.02148 352.266 6.83691 352.09 6.59082C351.932 6.32715 351.791 6.13379 351.668 6.01074C351.562 5.8877 351.422 5.72949 351.246 5.53613C351.07 5.3252 350.903 5.1582 350.745 5.03516C350.218 4.66602 349.813 4.41113 349.532 4.27051H350.112C351.062 3.46191 352.714 2.82031 355.069 2.3457C358.479 1.66016 362.399 1.31738 366.829 1.31738C371.276 1.31738 376.172 1.89746 381.516 3.05762C380.812 3.83105 379.925 5.21094 378.853 7.19727C377.798 9.16602 377.271 10.5986 377.271 11.4951C377.271 12.3916 377.095 13.0332 376.743 13.4199L376.796 14.29C376.796 15.6963 376.427 18.0518 375.688 21.3564C374.229 20.5479 373.113 20.1436 372.34 20.1436C371.566 20.1436 371.004 19.9502 370.652 19.5635C369.721 19.5635 368.921 19.5195 368.253 19.4316C367.603 19.3262 366.97 19.2295 366.354 19.1416C365.757 19.0537 365.291 18.9834 364.957 18.9307C365.273 19.1064 365.432 19.9941 365.432 21.5938L365.326 24.4414H373.263V28.7129C373.263 29.2402 373.148 30.0664 372.92 31.1914C372.691 32.2988 372.445 32.8965 372.182 32.9844L370.652 31.7451H365.88L365.326 32.3252V36.6758L365.88 37.0977L366.354 36.6758L365.88 35.4102C366.706 35.4277 368.042 35.5332 369.888 35.7266C371.751 35.9199 373.192 36.0166 374.212 36.0166V36.6758L373.737 39.0752L373.263 39.7344L373.737 40.3145V40.9209H373.263V41.4746L373.737 42.1338C373.421 42.5732 373.263 43.0391 373.263 43.5312V45.166L372.788 44.5332H372.182V42.7402L371.654 42.1338H369.044C368.692 42.5381 368.104 42.7402 367.277 42.7402ZM398.944 22.4902L397.494 20.0381L397.969 19.458C397.477 19.458 397.213 19.4141 397.178 19.3262C397.107 19.0977 396.94 18.9219 396.677 18.7988H397.072L396.545 18.1924V18.7988L395.622 18.1924L394.673 19.458V20.6973C394.673 21.1367 394.717 21.4707 394.805 21.6992C394.893 21.9102 394.954 22.0684 394.989 22.1738C395.024 22.2793 395.104 22.4199 395.227 22.5957C395.35 22.7715 395.429 22.8945 395.464 22.9648C395.622 23.2285 395.815 23.4746 396.044 23.7031V24.1777L396.545 23.7031C399.322 23.7031 401.414 24.7139 402.82 26.7354C404.227 28.7393 404.93 31.4023 404.93 34.7246H404.455C404.455 35.6914 404.358 36.3594 404.165 36.7285C403.989 37.0977 403.761 37.4932 403.479 37.915C403.216 38.3193 403.005 38.6709 402.847 38.9697C402.847 39.2686 402.724 39.6113 402.478 39.998C401.704 41.1934 401.317 42.2832 401.317 43.2676L400.816 42.9248V43.2676C400.746 43.1973 400.579 43.0742 400.315 42.8984C400.052 42.7402 399.85 42.6611 399.709 42.6611C399.586 42.6611 399.322 42.7578 398.918 42.9512C398.514 43.1621 398.197 43.2676 397.969 43.2676V42.6611H396.545V43.2676H396.044L395.622 42.6611V43.2676H393.671C393.671 43.7422 393.346 43.9795 392.695 43.9795L391.298 43.874L389.241 41.4219C389.241 40.8945 389.074 40.3496 388.74 39.7871C388.406 39.207 388.063 38.6533 387.712 38.126C387.36 37.5811 387.176 37.291 387.158 37.2559V35.9375L386.71 35.5947L386.604 35.9375H386.104C386.104 35.6914 386.279 35.4014 386.631 35.0674C386.982 34.7334 387.158 34.417 387.158 34.1182C388.055 34.1182 388.749 33.916 389.241 33.5117H394.172V32.8525H394.673V34.7246L395.147 35.2783L394.673 35.9375C394.673 36.3594 394.928 36.5703 395.438 36.5703H395.622C395.622 36.9922 395.815 37.2031 396.202 37.2031L397.072 37.1504L397.969 35.2783V34.1182L397.494 33.5117V31.6396L397.072 32.2461L396.545 31.6396L393.223 31.0596C392.977 30.708 392.669 30.5146 392.3 30.4795V29.8203H391.799L391.298 30.4795C388.696 29.0732 386.965 27.623 386.104 26.1289C386.104 25.4961 385.84 24.4414 385.312 22.9648C384.785 21.4883 384.521 20.3193 384.521 19.458V14.1582C384.521 12.541 384.864 10.9238 385.55 9.30664C386.235 7.68945 387.105 6.29199 388.16 5.11426C389.232 3.93652 390.428 2.97852 391.746 2.24023C393.082 1.50195 394.374 1.13281 395.622 1.13281L396.044 1.71289C396.624 1.32617 396.967 1.13281 397.072 1.13281C398.443 1.13281 399.683 1.32617 400.79 1.71289C401.915 2.08203 402.741 2.49512 403.269 2.95215C403.813 3.3916 404.288 3.80469 404.692 4.19141C405.097 4.56055 405.36 4.74512 405.483 4.74512C405.483 5.11426 405.747 5.43945 406.274 5.7207C406.819 5.98438 407.092 6.2832 407.092 6.61719C407.338 6.77539 407.584 7.10059 407.83 7.59277C408.076 8.06738 408.199 8.40137 408.199 8.59473C408.199 8.77051 408.19 8.92871 408.173 9.06934H407.619L406.538 22.4902L406.037 23.0967H407.092V23.7031H404.93L404.455 23.0967V22.4902C404.139 22.7715 403.77 22.9736 403.348 23.0967L402.319 21.8574V22.4902H398.944Z" fill="#FF0000"/>
</g>
<defs>
<filter id="filter0_d_380_349" x="0.825195" y="0.104492" width="420.374" height="80.7588" filterUnits="userSpaceOnUse" color-interpolation-filters="sRGB">
<feFlood flood-opacity="0" result="BackgroundImageFix"/>
<feColorMatrix in="SourceAlpha" type="matrix" values="0 0 0 0 0 0 0 0 0 0 0 0 0 0 0 0 0 0 127 0" result="hardAlpha"/>
<feOffset dy="16"/>
<feGaussianBlur stdDeviation="6.5"/>
<feComposite in2="hardAlpha" operator="out"/>
<feColorMatrix type="matrix" values="0 0 0 0 0 0 0 0 0 0 0 0 0 0 0 0 0 0 0.25 0"/>
<feBlend mode="normal" in2="BackgroundImageFix" result="effect1_dropShadow_380_349"/>
<feBlend mode="normal" in="SourceGraphic" in2="effect1_dropShadow_380_349" result="shape"/>
</filter>
</defs>
</svg>
